<?xml version="1.0" encoding="utf-8"?>
<!-- Generator: Adobe Illustrator 16.0.0, SVG Export Plug-In . SVG Version: 6.00 Build 0)  -->
<!DOCTYPE svg PUBLIC "-//W3C//DTD SVG 1.1//EN" "http://www.w3.org/Graphics/SVG/1.1/DTD/svg11.dtd">
<svg version="1.1" id="Layer_1" xmlns="http://www.w3.org/2000/svg" xmlns:xlink="http://www.w3.org/1999/xlink" x="0px" y="0px"
	 width="295.714px" height="300px" viewBox="0 0 295.714 300" enable-background="new 0 0 295.714 300" xml:space="preserve">
<g>
	<g>
		<g>
			
				<linearGradient id="SVGID_1_" gradientUnits="userSpaceOnUse" x1="-237.6523" y1="246.0815" x2="44.558" y2="246.0815" gradientTransform="matrix(1 0 0 -1 244 396.5713)">
				<stop  offset="0.3958" style="stop-color:#FF907E"/>
				<stop  offset="0.9576" style="stop-color:#E4388C"/>
			</linearGradient>
			<path fill="none" stroke="url(#SVGID_1_)" stroke-width="2" stroke-miterlimit="10" d="M288.558,151.49
				c0-77.993-63.111-141.104-141.105-141.104S6.348,73.497,6.348,151.49c0,77.994,63.111,141.104,141.104,141.104
				C225.447,292.595,288.558,229.484,288.558,151.49z"/>
			
				<linearGradient id="SVGID_2_" gradientUnits="userSpaceOnUse" x1="-237.6523" y1="245.0806" x2="44.558" y2="245.0806" gradientTransform="matrix(1 0 0 -1 244 396.5713)">
				<stop  offset="0.3958" style="stop-color:#FF907E"/>
				<stop  offset="0.9576" style="stop-color:#E4388C"/>
			</linearGradient>
			<path fill="none" stroke="url(#SVGID_2_)" stroke-width="2" stroke-miterlimit="10" d="M147.453,279.768
				c-70.903,0-128.277-57.375-128.277-128.278c0-70.902,57.375-128.277,128.277-128.277c70.903,0,128.276,57.375,128.276,128.277
				C275.729,222.393,218.356,279.768,147.453,279.768z"/>
			
				<linearGradient id="SVGID_3_" gradientUnits="userSpaceOnUse" x1="-237.6523" y1="245.0806" x2="44.558" y2="245.0806" gradientTransform="matrix(1 0 0 -1 244 396.5713)">
				<stop  offset="0.3958" style="stop-color:#FF907E"/>
				<stop  offset="0.9576" style="stop-color:#E4388C"/>
			</linearGradient>
			<path fill="none" stroke="url(#SVGID_3_)" stroke-width="2" stroke-miterlimit="10" d="M262.902,151.49
				c0-63.813-51.636-115.449-115.449-115.449S32.003,87.677,32.003,151.49c0,63.813,51.636,115.45,115.449,115.45
				C211.265,266.94,262.902,215.303,262.902,151.49z"/>
			
				<linearGradient id="SVGID_4_" gradientUnits="userSpaceOnUse" x1="-237.6523" y1="245.0806" x2="44.558" y2="245.0806" gradientTransform="matrix(1 0 0 -1 244 396.5713)">
				<stop  offset="0.3958" style="stop-color:#FF907E"/>
				<stop  offset="0.9576" style="stop-color:#E4388C"/>
			</linearGradient>
			<path fill="none" stroke="url(#SVGID_4_)" stroke-width="2" stroke-miterlimit="10" d="M147.453,254.113
				c-56.722,0-102.621-45.899-102.621-102.623c0-56.722,45.899-102.622,102.621-102.622c56.724,0,102.622,45.899,102.622,102.622
				C250.075,208.212,204.175,254.113,147.453,254.113z"/>
			
				<linearGradient id="SVGID_5_" gradientUnits="userSpaceOnUse" x1="-237.6523" y1="245.0806" x2="44.558" y2="245.0806" gradientTransform="matrix(1 0 0 -1 244 396.5713)">
				<stop  offset="0.3958" style="stop-color:#FF907E"/>
				<stop  offset="0.9576" style="stop-color:#E4388C"/>
			</linearGradient>
			<path fill="none" stroke="url(#SVGID_5_)" stroke-width="2" stroke-miterlimit="10" d="M237.246,151.49
				c0-49.632-40.162-89.793-89.793-89.793c-49.632,0-89.794,40.162-89.794,89.793c0,49.633,40.162,89.794,89.794,89.794
				C197.084,241.285,237.246,201.123,237.246,151.49z"/>
			
				<linearGradient id="SVGID_6_" gradientUnits="userSpaceOnUse" x1="-237.6523" y1="245.0806" x2="44.558" y2="245.0806" gradientTransform="matrix(1 0 0 -1 244 396.5713)">
				<stop  offset="0.3958" style="stop-color:#FF907E"/>
				<stop  offset="0.9576" style="stop-color:#E4388C"/>
			</linearGradient>
			<path fill="none" stroke="url(#SVGID_6_)" stroke-width="2" stroke-miterlimit="10" d="M147.453,228.457
				c-42.542,0-76.966-34.424-76.966-76.967c0-42.541,34.424-76.966,76.966-76.966c42.543,0,76.966,34.425,76.966,76.966
				C224.418,194.033,189.996,228.457,147.453,228.457z"/>
			
				<linearGradient id="SVGID_7_" gradientUnits="userSpaceOnUse" x1="-237.6523" y1="245.0806" x2="44.558" y2="245.0806" gradientTransform="matrix(1 0 0 -1 244 396.5713)">
				<stop  offset="0.3958" style="stop-color:#FF907E"/>
				<stop  offset="0.9576" style="stop-color:#E4388C"/>
			</linearGradient>
			<path fill="none" stroke="url(#SVGID_7_)" stroke-width="2" stroke-miterlimit="10" d="M211.59,151.49
				c0-35.452-28.687-64.138-64.139-64.138s-64.137,28.686-64.137,64.138s28.687,64.14,64.138,64.14S211.59,186.942,211.59,151.49z"
				/>
			
				<linearGradient id="SVGID_8_" gradientUnits="userSpaceOnUse" x1="-237.6523" y1="245.0815" x2="44.558" y2="245.0815" gradientTransform="matrix(1 0 0 -1 244 396.5713)">
				<stop  offset="0.3958" style="stop-color:#FF907E"/>
				<stop  offset="0.9576" style="stop-color:#E4388C"/>
			</linearGradient>
			<path fill="none" stroke="url(#SVGID_8_)" stroke-width="2" stroke-miterlimit="10" d="M147.453,202.801
				c-28.361,0-51.312-22.949-51.312-51.312c0-28.36,22.95-51.311,51.312-51.311c28.36,0,51.312,22.95,51.312,51.311
				C198.763,179.852,175.813,202.801,147.453,202.801z"/>
			
				<linearGradient id="SVGID_9_" gradientUnits="userSpaceOnUse" x1="-237.6523" y1="245.0815" x2="44.558" y2="245.0815" gradientTransform="matrix(1 0 0 -1 244 396.5713)">
				<stop  offset="0.3958" style="stop-color:#FF907E"/>
				<stop  offset="0.9576" style="stop-color:#E4388C"/>
			</linearGradient>
			<path fill="none" stroke="url(#SVGID_9_)" stroke-width="2" stroke-miterlimit="10" d="M185.935,151.49
				c0-21.27-17.212-38.483-38.482-38.483s-38.483,17.214-38.483,38.483c0,21.271,17.213,38.483,38.483,38.483
				S185.935,172.762,185.935,151.49z"/>
			
				<linearGradient id="SVGID_10_" gradientUnits="userSpaceOnUse" x1="-237.6523" y1="245.0806" x2="44.558" y2="245.0806" gradientTransform="matrix(1 0 0 -1 244 396.5713)">
				<stop  offset="0.3958" style="stop-color:#FF907E"/>
				<stop  offset="0.9576" style="stop-color:#E4388C"/>
			</linearGradient>
			<path fill="none" stroke="url(#SVGID_10_)" stroke-width="2" stroke-miterlimit="10" d="M147.453,177.145
				c-14.182,0-25.655-11.476-25.655-25.655c0-14.18,11.474-25.654,25.655-25.654c14.181,0,25.656,11.474,25.656,25.654
				C173.109,165.67,161.633,177.145,147.453,177.145z"/>
			
				<linearGradient id="SVGID_11_" gradientUnits="userSpaceOnUse" x1="-237.6523" y1="245.0806" x2="44.558" y2="245.0806" gradientTransform="matrix(1 0 0 -1 244 396.5713)">
				<stop  offset="0.3958" style="stop-color:#FF907E"/>
				<stop  offset="0.9576" style="stop-color:#E4388C"/>
			</linearGradient>
			<path fill="none" stroke="url(#SVGID_11_)" stroke-width="2" stroke-miterlimit="10" d="M160.281,151.49
				c0-7.089-5.738-12.827-12.829-12.827s-12.828,5.738-12.828,12.827c0,7.091,5.737,12.828,12.828,12.828
				C154.543,164.318,160.281,158.581,160.281,151.49z"/>
		</g>
	</g>
</g>
</svg>
