<?xml version="1.0" encoding="utf-8"?>
<!-- Generator: Adobe Illustrator 16.0.0, SVG Export Plug-In . SVG Version: 6.00 Build 0)  -->
<!DOCTYPE svg PUBLIC "-//W3C//DTD SVG 1.1//EN" "http://www.w3.org/Graphics/SVG/1.1/DTD/svg11.dtd">
<svg version="1.1" id="Layer_1" xmlns="http://www.w3.org/2000/svg" xmlns:xlink="http://www.w3.org/1999/xlink" x="0px" y="0px"
	 width="265.715px" height="268px" viewBox="0 0 265.715 268" enable-background="new 0 0 265.715 268" xml:space="preserve">
<g opacity="0.56">
	<g>
		
			<linearGradient id="SVGID_1_" gradientUnits="userSpaceOnUse" x1="-237.4375" y1="231.3965" x2="17.3534" y2="231.3965" gradientTransform="matrix(1 0 0 -1 244 368)">
			<stop  offset="0.3964" style="stop-color:#FF907E"/>
			<stop  offset="0.93" style="stop-color:#EF8ABB"/>
		</linearGradient>
		<path fill="none" stroke="url(#SVGID_1_)" stroke-width="4" stroke-miterlimit="10" d="M133.958,261.997
			c-69.311,0-125.396-56.084-125.396-125.392c0-69.313,56.085-125.396,125.396-125.396s125.396,56.083,125.396,125.396
			C259.354,205.913,203.269,261.997,133.958,261.997z"/>
		
			<linearGradient id="SVGID_2_" gradientUnits="userSpaceOnUse" x1="-216.5381" y1="231.3965" x2="-3.5459" y2="231.3965" gradientTransform="matrix(1 0 0 -1 244 368)">
			<stop  offset="0.3964" style="stop-color:#FF907E"/>
			<stop  offset="0.93" style="stop-color:#EF8ABB"/>
		</linearGradient>
		<path fill="none" stroke="url(#SVGID_2_)" stroke-width="4" stroke-miterlimit="10" d="M238.454,136.605
			c0-57.76-46.736-104.496-104.496-104.496c-57.759,0-104.496,46.736-104.496,104.496c0,57.758,46.737,104.492,104.496,104.492
			C191.718,241.099,238.454,194.363,238.454,136.605z"/>
		
			<linearGradient id="SVGID_3_" gradientUnits="userSpaceOnUse" x1="-195.6396" y1="231.3965" x2="-24.4443" y2="231.3965" gradientTransform="matrix(1 0 0 -1 244 368)">
			<stop  offset="0.3964" style="stop-color:#FF907E"/>
			<stop  offset="0.93" style="stop-color:#EF8ABB"/>
		</linearGradient>
		<path fill="none" stroke="url(#SVGID_3_)" stroke-width="4" stroke-miterlimit="10" d="M133.958,220.199
			c-46.207,0-83.598-37.391-83.598-83.594c0-46.209,37.391-83.598,83.598-83.598s83.598,37.389,83.598,83.598
			C217.556,182.81,180.165,220.199,133.958,220.199z"/>
		
			<linearGradient id="SVGID_4_" gradientUnits="userSpaceOnUse" x1="-174.7393" y1="231.3965" x2="-45.3428" y2="231.3965" gradientTransform="matrix(1 0 0 -1 244 368)">
			<stop  offset="0.3964" style="stop-color:#FF907E"/>
			<stop  offset="0.93" style="stop-color:#EF8ABB"/>
		</linearGradient>
		<path fill="none" stroke="url(#SVGID_4_)" stroke-width="4" stroke-miterlimit="10" d="M196.657,136.605
			c0-34.656-28.043-62.698-62.698-62.698s-62.698,28.042-62.698,62.698c0,34.651,28.043,62.694,62.698,62.694
			S196.657,171.258,196.657,136.605z"/>
		
			<linearGradient id="SVGID_5_" gradientUnits="userSpaceOnUse" x1="-153.8428" y1="231.3955" x2="-66.2422" y2="231.3955" gradientTransform="matrix(1 0 0 -1 244 368)">
			<stop  offset="0.3964" style="stop-color:#FF907E"/>
			<stop  offset="0.93" style="stop-color:#EF8ABB"/>
		</linearGradient>
		<path fill="none" stroke="url(#SVGID_5_)" stroke-width="4" stroke-miterlimit="10" d="M133.958,178.403
			c-23.104,0-41.801-18.696-41.801-41.798c0-23.105,18.696-41.8,41.801-41.8c23.104,0,41.8,18.693,41.8,41.8
			C175.758,159.707,157.062,178.403,133.958,178.403z"/>
		
			<linearGradient id="SVGID_6_" gradientUnits="userSpaceOnUse" x1="-132.9404" y1="231.3965" x2="-87.1436" y2="231.3965" gradientTransform="matrix(1 0 0 -1 244 368)">
			<stop  offset="0.3964" style="stop-color:#FF907E"/>
			<stop  offset="0.93" style="stop-color:#EF8ABB"/>
		</linearGradient>
		<path fill="none" stroke="url(#SVGID_6_)" stroke-width="4" stroke-miterlimit="10" d="M154.856,136.605
			c0-11.555-9.347-20.9-20.897-20.9c-11.552,0-20.899,9.347-20.899,20.9c0,11.55,9.348,20.897,20.899,20.897
			C145.51,157.503,154.856,148.155,154.856,136.605z"/>
	</g>
</g>
</svg>
