<?xml version="1.0" encoding="utf-8"?>
<!-- Generator: Adobe Illustrator 16.0.0, SVG Export Plug-In . SVG Version: 6.00 Build 0)  -->
<!DOCTYPE svg PUBLIC "-//W3C//DTD SVG 1.1//EN" "http://www.w3.org/Graphics/SVG/1.1/DTD/svg11.dtd">
<svg version="1.1" id="Layer_1" xmlns="http://www.w3.org/2000/svg" xmlns:xlink="http://www.w3.org/1999/xlink" x="0px" y="0px"
	 width="158.571px" height="154.285px" viewBox="0 0 158.571 154.285" enable-background="new 0 0 158.571 154.285"
	 xml:space="preserve">
<g>
	<g>
		<circle fill="#282828" cx="19.48" cy="16.213" r="4.642"/>
		<circle fill="#282828" cx="43.347" cy="16.213" r="4.642"/>
		<circle fill="#282828" cx="67.213" cy="16.213" r="4.641"/>
		<circle fill="#282828" cx="91.079" cy="16.213" r="4.642"/>
		<path fill="#282828" d="M119.586,16.213c0,2.564-2.076,4.642-4.643,4.642c-2.563,0-4.641-2.078-4.641-4.642
			s2.078-4.642,4.641-4.642C117.51,11.571,119.586,13.649,119.586,16.213z"/>
		<circle fill="#282828" cx="138.811" cy="16.213" r="4.643"/>
	</g>
	<g>
		<circle fill="#282828" cx="19.48" cy="40.079" r="4.642"/>
		<circle fill="#282828" cx="43.347" cy="40.079" r="4.642"/>
		<circle fill="#282828" cx="67.213" cy="40.079" r="4.641"/>
		<circle fill="#282828" cx="91.079" cy="40.079" r="4.642"/>
		<path fill="#282828" d="M119.586,40.079c0,2.564-2.076,4.642-4.643,4.642c-2.563,0-4.641-2.078-4.641-4.642
			c0-2.563,2.078-4.642,4.641-4.642C117.51,35.438,119.586,37.516,119.586,40.079z"/>
		<circle fill="#282828" cx="138.811" cy="40.079" r="4.643"/>
	</g>
	<g>
		<circle fill="#282828" cx="19.48" cy="63.945" r="4.642"/>
		<circle fill="#282828" cx="43.347" cy="63.945" r="4.642"/>
		<circle fill="#282828" cx="67.213" cy="63.945" r="4.641"/>
		<circle fill="#282828" cx="91.079" cy="63.945" r="4.642"/>
		<path fill="#282828" d="M119.586,63.945c0,2.563-2.076,4.642-4.643,4.642c-2.563,0-4.641-2.078-4.641-4.642
			c0-2.564,2.078-4.643,4.641-4.643C117.51,59.302,119.586,61.381,119.586,63.945z"/>
		<circle fill="#282828" cx="138.811" cy="63.945" r="4.643"/>
	</g>
	<g>
		<circle fill="#282828" cx="19.48" cy="87.81" r="4.642"/>
		<circle fill="#282828" cx="43.347" cy="87.81" r="4.642"/>
		<circle fill="#282828" cx="67.213" cy="87.81" r="4.641"/>
		<circle fill="#282828" cx="91.079" cy="87.81" r="4.642"/>
		<path fill="#282828" d="M119.586,87.81c0,2.564-2.076,4.644-4.643,4.644c-2.563,0-4.641-2.079-4.641-4.644
			c0-2.563,2.078-4.641,4.641-4.641C117.51,83.169,119.586,85.247,119.586,87.81z"/>
		<circle fill="#282828" cx="138.811" cy="87.81" r="4.643"/>
	</g>
	<g>
		<circle fill="#282828" cx="19.48" cy="111.677" r="4.642"/>
		<circle fill="#282828" cx="43.347" cy="111.677" r="4.642"/>
		<circle fill="#282828" cx="67.213" cy="111.677" r="4.641"/>
		<circle fill="#282828" cx="91.079" cy="111.677" r="4.642"/>
		<path fill="#282828" d="M119.586,111.677c0,2.563-2.076,4.641-4.643,4.641c-2.563,0-4.641-2.078-4.641-4.641
			c0-2.564,2.078-4.643,4.641-4.643C117.51,107.034,119.586,109.112,119.586,111.677z"/>
		<circle fill="#282828" cx="138.811" cy="111.677" r="4.643"/>
	</g>
	<g>
		<circle fill="#282828" cx="19.48" cy="135.542" r="4.642"/>
		<circle fill="#282828" cx="43.347" cy="135.542" r="4.642"/>
		<circle fill="#282828" cx="67.213" cy="135.542" r="4.641"/>
		<circle fill="#282828" cx="91.079" cy="135.542" r="4.642"/>
		<path fill="#282828" d="M119.586,135.542c0,2.564-2.076,4.643-4.643,4.643c-2.563,0-4.641-2.078-4.641-4.643
			s2.078-4.642,4.641-4.642C117.51,130.9,119.586,132.978,119.586,135.542z"/>
		<circle fill="#282828" cx="138.811" cy="135.542" r="4.643"/>
	</g>
</g>
</svg>
