<?xml version="1.0" encoding="utf-8"?>
<!-- Generator: Adobe Illustrator 16.0.0, SVG Export Plug-In . SVG Version: 6.00 Build 0)  -->
<!DOCTYPE svg PUBLIC "-//W3C//DTD SVG 1.1//EN" "http://www.w3.org/Graphics/SVG/1.1/DTD/svg11.dtd">
<svg version="1.1" id="Layer_1" xmlns="http://www.w3.org/2000/svg" xmlns:xlink="http://www.w3.org/1999/xlink" x="0px" y="0px"
	 width="364.286px" height="198.57px" viewBox="0 0 364.286 198.57" enable-background="new 0 0 364.286 198.57"
	 xml:space="preserve">
<g opacity="0.2">
	<circle cx="12.065" cy="184.425" r="2.413"/>
	<circle cx="30.163" cy="184.424" r="2.414"/>
	<circle cx="21.115" cy="175.376" r="2.414"/>
	<circle cx="48.262" cy="184.424" r="2.414"/>
	<circle cx="39.213" cy="175.375" r="2.414"/>
	<circle cx="30.165" cy="166.326" r="2.414"/>
	<circle cx="66.363" cy="184.423" r="2.413"/>
	<circle cx="57.313" cy="175.374" r="2.413"/>
	<path d="M49.97,164.617c-0.94-0.94-2.472-0.94-3.414,0.002s-0.939,2.471,0.002,3.411c0.943,0.944,2.47,0.945,3.412,0.003
		S50.914,165.562,49.97,164.617z"/>
	<circle cx="39.215" cy="157.276" r="2.413"/>
	<circle cx="84.462" cy="184.425" r="2.413"/>
	<circle cx="75.411" cy="175.375" r="2.413"/>
	<circle cx="66.361" cy="166.325" r="2.413"/>
	<circle cx="57.312" cy="157.275" r="2.413"/>
	<circle cx="48.264" cy="148.228" r="2.413"/>
	<circle cx="102.56" cy="184.425" r="2.413"/>
	<circle cx="93.511" cy="175.376" r="2.413"/>
	<circle cx="84.46" cy="166.326" r="2.413"/>
	<circle cx="75.411" cy="157.276" r="2.413"/>
	<circle cx="66.361" cy="148.227" r="2.413"/>
	<circle cx="57.313" cy="139.178" r="2.413"/>
	<path d="M122.367,182.719c-0.944-0.943-2.471-0.942-3.414,0c-0.943,0.943-0.943,2.469,0.001,3.413
		c0.939,0.939,2.468,0.943,3.412-0.001C123.309,185.188,123.307,183.659,122.367,182.719z"/>
	<circle cx="111.61" cy="175.375" r="2.413"/>
	<circle cx="102.561" cy="166.326" r="2.413"/>
	<circle cx="93.511" cy="157.276" r="2.413"/>
	<circle cx="84.46" cy="148.226" r="2.413"/>
	<circle cx="75.411" cy="139.176" r="2.413"/>
	<circle cx="66.363" cy="130.128" r="2.413"/>
	<circle cx="138.757" cy="184.423" r="2.413"/>
	<path d="M131.416,173.67c-0.943-0.944-2.471-0.942-3.414,0.001c-0.942,0.941-0.942,2.468,0.002,3.411
		c0.939,0.94,2.469,0.943,3.41,0.001C132.357,176.14,132.355,174.609,131.416,173.67z"/>
	<circle cx="120.66" cy="166.326" r="2.413"/>
	<circle cx="111.61" cy="157.276" r="2.413"/>
	<circle cx="102.56" cy="148.227" r="2.413"/>
	<circle cx="93.51" cy="139.176" r="2.413"/>
	<circle cx="84.46" cy="130.127" r="2.413"/>
	<circle cx="75.413" cy="121.079" r="2.413"/>
	<circle cx="156.858" cy="184.424" r="2.413"/>
	<circle cx="147.808" cy="175.374" r="2.413"/>
	<path d="M140.467,164.619c-0.944-0.943-2.473-0.941-3.414,0.001c-0.943,0.942-0.943,2.468,0.001,3.412
		c0.939,0.939,2.468,0.943,3.411,0C141.407,167.091,141.406,165.56,140.467,164.619z"/>
	<circle cx="129.71" cy="157.276" r="2.413"/>
	<circle cx="120.661" cy="148.227" r="2.413"/>
	<circle cx="111.61" cy="139.176" r="2.413"/>
	<circle cx="102.56" cy="130.126" r="2.413"/>
	<circle cx="93.511" cy="121.077" r="2.413"/>
	<circle cx="84.462" cy="112.029" r="2.413"/>
	<circle cx="174.957" cy="184.425" r="2.412"/>
	<circle cx="165.907" cy="175.375" r="2.412"/>
	<circle cx="156.856" cy="166.325" r="2.412"/>
	<path d="M149.515,155.571c-0.944-0.943-2.471-0.943-3.413,0c-0.942,0.941-0.942,2.468,0.002,3.411
		c0.939,0.94,2.469,0.943,3.41,0.001C150.457,158.04,150.454,156.512,149.515,155.571z"/>
	<circle cx="138.758" cy="148.227" r="2.412"/>
	<circle cx="129.709" cy="139.177" r="2.412"/>
	<circle cx="120.659" cy="130.127" r="2.412"/>
	<circle cx="111.609" cy="121.078" r="2.412"/>
	<circle cx="102.56" cy="112.028" r="2.412"/>
	<circle cx="93.511" cy="102.98" r="2.412"/>
	<circle cx="193.057" cy="184.427" r="2.413"/>
	<circle cx="184.006" cy="175.376" r="2.413"/>
	<circle cx="174.956" cy="166.327" r="2.414"/>
	<path d="M167.612,155.569c-0.943-0.941-2.469-0.942-3.41,0c-0.943,0.943-0.945,2.471-0.004,3.413c0.943,0.943,2.475,0.943,3.416,0
		C168.557,158.04,168.555,156.513,167.612,155.569z"/>
	<path d="M158.563,146.522c-0.943-0.944-2.469-0.945-3.411-0.002c-0.943,0.942-0.945,2.471-0.001,3.414
		c0.939,0.94,2.47,0.941,3.413-0.002C159.507,148.99,159.504,147.462,158.563,146.522z"/>
	<circle cx="147.808" cy="139.178" r="2.413"/>
	<circle cx="138.758" cy="130.129" r="2.413"/>
	<circle cx="129.708" cy="121.079" r="2.413"/>
	<circle cx="120.658" cy="112.029" r="2.413"/>
	<circle cx="111.608" cy="102.979" r="2.413"/>
	<circle cx="102.56" cy="93.931" r="2.413"/>
	<circle cx="211.153" cy="184.424" r="2.414"/>
	<path d="M203.813,173.671c-0.943-0.943-2.475-0.943-3.416-0.002c-0.943,0.942-0.941,2.472,0.002,3.415
		c0.941,0.941,2.469,0.94,3.41-0.002C204.753,176.14,204.755,174.612,203.813,173.671z"/>
	<circle cx="193.056" cy="166.327" r="2.414"/>
	<circle cx="184.006" cy="157.277" r="2.413"/>
	<circle cx="174.955" cy="148.226" r="2.413"/>
	<path d="M167.614,137.472c-0.943-0.943-2.473-0.941-3.414,0c-0.941,0.943-0.943,2.47,0.002,3.414
		c0.939,0.939,2.469,0.941,3.41-0.001C168.555,139.942,168.553,138.412,167.614,137.472z"/>
	<circle cx="156.857" cy="130.128" r="2.413"/>
	<circle cx="147.808" cy="121.079" r="2.414"/>
	<circle cx="138.757" cy="112.029" r="2.413"/>
	<circle cx="129.708" cy="102.979" r="2.413"/>
	<circle cx="120.658" cy="93.929" r="2.414"/>
	<circle cx="111.61" cy="84.881" r="2.413"/>
	<circle cx="229.254" cy="184.425" r="2.413"/>
	<circle cx="220.203" cy="175.375" r="2.413"/>
	<path d="M212.862,164.621c-0.943-0.943-2.473-0.944-3.416-0.002c-0.941,0.942-0.939,2.472,0.004,3.414
		c0.941,0.942,2.467,0.941,3.41-0.001C213.802,167.09,213.804,165.563,212.862,164.621z"/>
	<circle cx="202.105" cy="157.276" r="2.413"/>
	<circle cx="193.056" cy="148.227" r="2.414"/>
	<circle cx="184.005" cy="139.176" r="2.414"/>
	<path d="M176.663,128.423c-0.943-0.944-2.471-0.942-3.414,0c-0.941,0.941-0.941,2.469,0.002,3.412c0.939,0.94,2.469,0.942,3.412,0
		C177.604,130.893,177.604,129.362,176.663,128.423z"/>
	<path d="M167.614,119.372c-0.941-0.941-2.471-0.94-3.412,0.003c-0.941,0.941-0.943,2.468,0,3.41
		c0.939,0.941,2.469,0.942,3.41,0.001C168.555,121.843,168.555,120.313,167.614,119.372z"/>
	<circle cx="156.857" cy="112.029" r="2.413"/>
	<circle cx="147.808" cy="102.979" r="2.413"/>
	<circle cx="138.757" cy="93.929" r="2.413"/>
	<circle cx="129.708" cy="84.879" r="2.413"/>
	<circle cx="120.66" cy="75.832" r="2.413"/>
	<circle cx="247.353" cy="184.425" r="2.412"/>
	<circle cx="238.303" cy="175.375" r="2.412"/>
	<circle cx="229.253" cy="166.326" r="2.412"/>
	<circle cx="220.205" cy="157.278" r="2.412"/>
	<circle cx="211.154" cy="148.227" r="2.412"/>
	<circle cx="202.105" cy="139.177" r="2.412"/>
	<circle cx="193.055" cy="130.126" r="2.412"/>
	<path d="M185.712,119.374c-0.943-0.944-2.471-0.943-3.413-0.002c-0.941,0.942-0.941,2.469,0.002,3.413
		c0.939,0.939,2.469,0.941,3.411,0C186.655,121.843,186.653,120.313,185.712,119.374z"/>
	<circle cx="174.957" cy="112.03" r="2.412"/>
	<circle cx="165.907" cy="102.98" r="2.412"/>
	<circle cx="156.857" cy="93.93" r="2.412"/>
	<circle cx="147.807" cy="84.879" r="2.412"/>
	<circle cx="138.757" cy="75.831" r="2.412"/>
	<circle cx="129.709" cy="66.782" r="2.412"/>
	<circle cx="265.451" cy="184.427" r="2.413"/>
	<path d="M258.106,173.671c-0.941-0.942-2.467-0.943-3.41-0.002c-0.941,0.942-0.943,2.473-0.002,3.414
		c0.943,0.942,2.473,0.941,3.416-0.001C259.052,176.14,259.05,174.613,258.106,173.671z"/>
	<circle cx="247.352" cy="166.327" r="2.413"/>
	<path d="M240.007,155.571c-0.941-0.942-2.467-0.943-3.41-0.002c-0.941,0.942-0.943,2.473-0.002,3.414
		c0.943,0.942,2.473,0.941,3.416-0.001C240.952,158.04,240.95,156.514,240.007,155.571z"/>
	<path d="M230.96,146.523c-0.943-0.943-2.471-0.946-3.412-0.004c-0.943,0.942-0.943,2.474,0,3.417
		c0.941,0.941,2.469,0.938,3.412-0.005C231.901,148.99,231.901,147.466,230.96,146.523z"/>
	<circle cx="220.203" cy="139.179" r="2.413"/>
	<circle cx="211.153" cy="130.129" r="2.414"/>
	<path d="M203.81,119.372c-0.943-0.941-2.469-0.942-3.41,0s-0.945,2.471-0.004,3.413c0.943,0.943,2.475,0.942,3.418,0
		C204.755,121.843,204.753,120.315,203.81,119.372z"/>
	<path d="M194.761,110.325c-0.943-0.944-2.469-0.944-3.41-0.003c-0.943,0.942-0.945,2.472-0.002,3.415
		c0.939,0.94,2.471,0.94,3.414-0.002C195.704,112.793,195.702,111.265,194.761,110.325z"/>
	<path d="M185.712,101.275c-0.943-0.942-2.469-0.943-3.411-0.001s-0.945,2.472-0.004,3.413s2.473,0.94,3.417-0.002
		C186.655,103.743,186.653,102.216,185.712,101.275z"/>
	<circle cx="174.955" cy="93.932" r="2.413"/>
	<circle cx="165.905" cy="84.882" r="2.413"/>
	<path d="M158.562,74.125c-0.942-0.941-2.469-0.943-3.41-0.001c-0.942,0.942-0.944,2.472-0.003,3.414
		c0.942,0.942,2.475,0.942,3.417,0C159.507,76.596,159.504,75.067,158.562,74.125z"/>
	<path d="M149.512,65.076c-0.94-0.941-2.469-0.944-3.41-0.003c-0.943,0.943-0.943,2.475-0.003,3.415
		c0.944,0.944,2.474,0.942,3.416-0.001C150.457,67.546,150.455,66.02,149.512,65.076z"/>
	<circle cx="138.757" cy="57.734" r="2.413"/>
	<circle cx="283.552" cy="184.426" r="2.414"/>
	<path d="M276.208,173.669c-0.943-0.943-2.469-0.941-3.414,0.003c-0.939,0.939-0.943,2.467,0,3.411
		c0.943,0.942,2.471,0.939,3.412-0.001C277.149,176.138,277.151,174.611,276.208,173.669z"/>
	<path d="M267.159,164.619c-0.943-0.942-2.471-0.942-3.414,0.003c-0.941,0.939-0.943,2.469,0,3.411
		c0.941,0.942,2.473,0.941,3.412,0.001C268.103,167.09,268.101,165.562,267.159,164.619z"/>
	<path d="M258.108,155.569c-0.943-0.943-2.469-0.941-3.414,0.003c-0.939,0.939-0.943,2.468,0,3.411
		c0.943,0.942,2.473,0.941,3.414,0.002C259.052,158.04,259.052,156.512,258.108,155.569z"/>
	<path d="M249.06,146.52c-0.943-0.942-2.471-0.942-3.414,0.003c-0.941,0.939-0.943,2.469,0,3.411
		c0.941,0.942,2.473,0.941,3.412,0.001C250.003,148.99,250.001,147.462,249.06,146.52z"/>
	<path d="M240.011,137.472c-0.943-0.942-2.471-0.944-3.416,0c-0.939,0.94-0.941,2.471,0.002,3.414
		c0.943,0.942,2.471,0.938,3.41-0.001C240.952,139.94,240.954,138.414,240.011,137.472z"/>
	<path d="M230.96,128.421c-0.941-0.942-2.471-0.943-3.414,0.002c-0.941,0.939-0.941,2.47,0,3.412c0.943,0.942,2.473,0.94,3.412,0
		C231.903,130.891,231.903,129.363,230.96,128.421z"/>
	<path d="M221.911,119.372c-0.943-0.942-2.469-0.942-3.414,0.003c-0.939,0.939-0.943,2.468,0,3.411
		c0.943,0.942,2.471,0.938,3.41-0.001C222.853,121.841,222.854,120.314,221.911,119.372z"/>
	<path d="M212.86,110.321c-0.941-0.942-2.469-0.941-3.414,0.003c-0.939,0.939-0.941,2.469,0,3.411
		c0.943,0.942,2.475,0.942,3.414,0.002C213.806,112.793,213.804,111.264,212.86,110.321z"/>
	<path d="M203.813,101.273c-0.945-0.943-2.471-0.943-3.416,0.002c-0.939,0.939-0.943,2.469,0.002,3.412
		c0.939,0.939,2.471,0.939,3.41,0C204.755,103.743,204.753,102.213,203.813,101.273z"/>
	<path d="M194.763,92.224c-0.941-0.942-2.469-0.941-3.414,0.003c-0.939,0.94-0.941,2.469,0,3.411c0.941,0.94,2.473,0.94,3.412,0
		C195.706,94.693,195.704,93.165,194.763,92.224z"/>
	<path d="M185.714,83.174c-0.943-0.942-2.471-0.942-3.417,0.002c-0.939,0.94-0.941,2.47,0.002,3.412
		c0.941,0.942,2.471,0.939,3.411,0C186.655,85.644,186.655,84.116,185.714,83.174z"/>
	<path d="M176.663,74.124c-0.941-0.942-2.469-0.941-3.414,0.003c-0.939,0.94-0.941,2.469,0,3.411c0.941,0.941,2.471,0.939,3.412,0
		C177.604,76.593,177.604,75.065,176.663,74.124z"/>
	<path d="M167.612,65.074c-0.941-0.942-2.469-0.942-3.414,0.002c-0.939,0.94-0.941,2.47,0,3.411
		c0.943,0.943,2.475,0.943,3.414,0.003C168.557,67.546,168.555,66.017,167.612,65.074z"/>
	<path d="M158.563,56.024c-0.94-0.94-2.471-0.942-3.415,0.002c-0.939,0.939-0.939,2.472,0.001,3.412
		c0.943,0.943,2.474,0.941,3.413,0.002C159.507,58.496,159.507,56.968,158.563,56.024z"/>
	<path d="M149.516,46.977c-0.942-0.942-2.472-0.944-3.417,0c-0.939,0.94-0.939,2.472,0.003,3.414s2.472,0.94,3.411,0
		C150.458,49.446,150.458,47.919,149.516,46.977z"/>
	<circle cx="301.649" cy="184.424" r="2.414"/>
	<circle cx="292.601" cy="175.376" r="2.414"/>
	<path d="M285.259,164.62c-0.945-0.944-2.473-0.94-3.414,0.002c-0.943,0.942-0.945,2.468,0,3.411
		c0.941,0.942,2.469,0.941,3.41-0.001C286.196,167.091,286.2,165.562,285.259,164.62z"/>
	<circle cx="274.501" cy="157.276" r="2.414"/>
	<circle cx="265.452" cy="148.227" r="2.414"/>
	<circle cx="256.401" cy="139.177" r="2.414"/>
	<path d="M249.062,128.423c-0.943-0.943-2.475-0.942-3.416-0.001c-0.943,0.942-0.941,2.472,0.002,3.415
		c0.941,0.941,2.467,0.94,3.41-0.002C249.999,130.893,250.003,129.364,249.062,128.423z"/>
	<circle cx="238.304" cy="121.079" r="2.414"/>
	<circle cx="229.253" cy="112.029" r="2.414"/>
	<circle cx="220.202" cy="102.979" r="2.414"/>
	<path d="M212.862,92.225c-0.943-0.944-2.473-0.941-3.414,0c-0.943,0.942-0.943,2.47,0,3.413c0.939,0.94,2.469,0.942,3.412,0
		C213.802,94.695,213.802,93.164,212.862,92.225z"/>
	<circle cx="202.104" cy="84.881" r="2.414"/>
	<circle cx="193.056" cy="75.832" r="2.414"/>
	<circle cx="184.005" cy="66.781" r="2.414"/>
	<circle cx="174.956" cy="57.731" r="2.414"/>
	<path d="M167.612,46.975c-0.939-0.94-2.471-0.94-3.414,0.002c-0.941,0.942-0.939,2.472,0,3.412
		c0.945,0.944,2.473,0.944,3.414,0.002C168.555,49.448,168.557,47.919,167.612,46.975z"/>
	<circle cx="156.857" cy="39.634" r="2.414"/>
	<circle cx="319.748" cy="184.425" r="2.412"/>
	<circle cx="310.697" cy="175.375" r="2.413"/>
	<circle cx="301.65" cy="166.327" r="2.413"/>
	<circle cx="292.6" cy="157.277" r="2.413"/>
	<circle cx="283.551" cy="148.228" r="2.413"/>
	<circle cx="274.5" cy="139.178" r="2.413"/>
	<circle cx="265.451" cy="130.128" r="2.413"/>
	<circle cx="256.402" cy="121.081" r="2.412"/>
	<circle cx="247.352" cy="112.03" r="2.412"/>
	<circle cx="238.303" cy="102.98" r="2.413"/>
	<circle cx="229.252" cy="93.93" r="2.413"/>
	<path d="M221.911,83.176c-0.945-0.943-2.471-0.943-3.414,0c-0.941,0.941-0.943,2.469,0.002,3.412c0.939,0.939,2.469,0.942,3.41,0
		C222.853,85.646,222.851,84.116,221.911,83.176z"/>
	<circle cx="211.154" cy="75.832" r="2.413"/>
	<circle cx="202.105" cy="66.782" r="2.413"/>
	<circle cx="193.055" cy="57.732" r="2.413"/>
	<circle cx="184.004" cy="48.682" r="2.413"/>
	<circle cx="174.955" cy="39.633" r="2.413"/>
	<circle cx="165.907" cy="30.585" r="2.412"/>
	<circle cx="337.846" cy="184.426" r="2.413"/>
	<circle cx="328.797" cy="175.376" r="2.413"/>
	<circle cx="319.746" cy="166.326" r="2.413"/>
	<circle cx="310.698" cy="157.278" r="2.414"/>
	<path d="M303.356,146.522c-0.945-0.944-2.471-0.942-3.412,0c-0.941,0.941-0.945,2.469-0.002,3.413
		c0.941,0.941,2.471,0.939,3.412-0.003C304.296,148.991,304.298,147.464,303.356,146.522z"/>
	<circle cx="292.599" cy="139.179" r="2.414"/>
	<circle cx="283.55" cy="130.129" r="2.414"/>
	<circle cx="274.499" cy="121.079" r="2.414"/>
	<circle cx="265.452" cy="112.032" r="2.414"/>
	<circle cx="256.401" cy="102.981" r="2.414"/>
	<circle cx="247.352" cy="93.931" r="2.413"/>
	<path d="M240.007,83.174c-0.941-0.941-2.469-0.941-3.41,0.001c-0.941,0.941-0.945,2.471-0.002,3.412
		c0.943,0.943,2.473,0.943,3.416,0.001C240.952,85.646,240.95,84.117,240.007,83.174z"/>
	<path d="M230.96,74.127c-0.943-0.944-2.471-0.943-3.412-0.002c-0.941,0.942-0.945,2.471-0.002,3.415
		c0.941,0.939,2.473,0.939,3.414-0.002C231.901,76.596,231.899,75.066,230.96,74.127z"/>
	<circle cx="220.203" cy="66.783" r="2.413"/>
	<circle cx="211.153" cy="57.734" r="2.414"/>
	<circle cx="202.104" cy="48.684" r="2.413"/>
	<circle cx="193.054" cy="39.633" r="2.414"/>
	<path d="M185.71,28.877c-0.939-0.94-2.469-0.942-3.413,0c-0.941,0.941-0.941,2.473,0,3.414c0.943,0.943,2.473,0.941,3.415,0
		C186.655,31.349,186.655,29.821,185.71,28.877z"/>
	<circle cx="174.956" cy="21.536" r="2.414"/>
	<path d="M357.651,182.717c-0.939-0.939-2.471-0.941-3.412,0.001s-0.941,2.474-0.002,3.413c0.943,0.944,2.473,0.942,3.414,0
		C358.595,185.188,358.595,183.661,357.651,182.717z"/>
	<circle cx="346.896" cy="175.376" r="2.414"/>
	<circle cx="337.847" cy="166.327" r="2.414"/>
	<circle cx="328.796" cy="157.276" r="2.414"/>
	<circle cx="319.749" cy="148.229" r="2.414"/>
	<circle cx="310.698" cy="139.179" r="2.414"/>
	<circle cx="301.649" cy="130.129" r="2.414"/>
	<circle cx="292.599" cy="121.079" r="2.414"/>
	<circle cx="283.55" cy="112.029" r="2.414"/>
	<circle cx="274.501" cy="102.982" r="2.414"/>
	<circle cx="265.45" cy="93.931" r="2.414"/>
	<circle cx="256.401" cy="84.882" r="2.414"/>
	<circle cx="247.351" cy="75.831" r="2.414"/>
	<path d="M240.011,65.076c-0.945-0.943-2.471-0.943-3.414,0c-0.941,0.941-0.945,2.471,0,3.414c0.939,0.94,2.471,0.94,3.412-0.002
		C240.952,67.546,240.95,66.017,240.011,65.076z"/>
	<circle cx="229.253" cy="57.733" r="2.414"/>
	<circle cx="220.204" cy="48.684" r="2.414"/>
	<circle cx="211.153" cy="39.634" r="2.414"/>
	<circle cx="202.103" cy="30.584" r="2.414"/>
	<circle cx="193.054" cy="21.534" r="2.414"/>
	<circle cx="184.005" cy="12.486" r="2.414"/>
</g>
</svg>
