<?xml version="1.0" encoding="utf-8"?>
<!-- Generator: Adobe Illustrator 16.0.0, SVG Export Plug-In . SVG Version: 6.00 Build 0)  -->
<!DOCTYPE svg PUBLIC "-//W3C//DTD SVG 1.1//EN" "http://www.w3.org/Graphics/SVG/1.1/DTD/svg11.dtd">
<svg version="1.1" id="Layer_1" xmlns="http://www.w3.org/2000/svg" xmlns:xlink="http://www.w3.org/1999/xlink" x="0px" y="0px"
	 width="223.51px" height="105.589px" viewBox="0 0 223.51 105.589" enable-background="new 0 0 223.51 105.589"
	 xml:space="preserve">
<g id="wavy">
	
		<linearGradient id="SVGID_1_" gradientUnits="userSpaceOnUse" x1="-231.6255" y1="113.0654" x2="-20.4897" y2="113.0654" gradientTransform="matrix(1 0 0 -1 244 205.1426)">
		<stop  offset="0.3964" style="stop-color:#FF907E"/>
		<stop  offset="0.93" style="stop-color:#EF8ABB"/>
	</linearGradient>
	<path fill="none" stroke="url(#SVGID_1_)" stroke-miterlimit="10" d="M223.51,105.589c-26.392,0-26.392-27.024-52.781-27.024
		c-26.391,0-26.391,27.024-52.784,27.024c-26.391,0-26.391-27.024-52.78-27.024c-26.396,0-26.396,27.024-52.79,27.024"/>
	
		<linearGradient id="SVGID_2_" gradientUnits="userSpaceOnUse" x1="-231.6255" y1="122.207" x2="-20.4897" y2="122.207" gradientTransform="matrix(1 0 0 -1 244 205.1426)">
		<stop  offset="0.3964" style="stop-color:#FF907E"/>
		<stop  offset="0.93" style="stop-color:#EF8ABB"/>
	</linearGradient>
	<path fill="none" stroke="url(#SVGID_2_)" stroke-miterlimit="10" d="M223.51,96.448c-26.392,0-26.392-27.025-52.781-27.025
		c-26.391,0-26.391,27.025-52.784,27.025c-26.391,0-26.391-27.025-52.78-27.025c-26.396,0-26.396,27.025-52.79,27.025"/>
	
		<linearGradient id="SVGID_3_" gradientUnits="userSpaceOnUse" x1="-231.6255" y1="177.0557" x2="-20.4897" y2="177.0557" gradientTransform="matrix(1 0 0 -1 244 205.1426)">
		<stop  offset="0.3964" style="stop-color:#FF907E"/>
		<stop  offset="0.93" style="stop-color:#EF8ABB"/>
	</linearGradient>
	<path fill="none" stroke="url(#SVGID_3_)" stroke-miterlimit="10" d="M223.51,41.6c-26.392,0-26.392-27.026-52.781-27.026
		c-26.391,0-26.391,27.026-52.784,27.026c-26.391,0-26.391-27.026-52.78-27.026c-26.396,0-26.396,27.026-52.79,27.026"/>
	
		<linearGradient id="SVGID_4_" gradientUnits="userSpaceOnUse" x1="-231.6255" y1="186.1963" x2="-20.4897" y2="186.1963" gradientTransform="matrix(1 0 0 -1 244 205.1426)">
		<stop  offset="0.3964" style="stop-color:#FF907E"/>
		<stop  offset="0.93" style="stop-color:#EF8ABB"/>
	</linearGradient>
	<path fill="none" stroke="url(#SVGID_4_)" stroke-miterlimit="10" d="M223.51,32.459c-26.392,0-26.392-27.026-52.781-27.026
		c-26.391,0-26.391,27.026-52.784,27.026c-26.391,0-26.391-27.026-52.78-27.026c-26.396,0-26.396,27.026-52.79,27.026"/>
	
		<linearGradient id="SVGID_5_" gradientUnits="userSpaceOnUse" x1="-231.6255" y1="158.7715" x2="-20.4897" y2="158.7715" gradientTransform="matrix(1 0 0 -1 244 205.1426)">
		<stop  offset="0.3964" style="stop-color:#FF907E"/>
		<stop  offset="0.93" style="stop-color:#EF8ABB"/>
	</linearGradient>
	<path fill="none" stroke="url(#SVGID_5_)" stroke-miterlimit="10" d="M223.51,59.884c-26.392,0-26.392-27.025-52.781-27.025
		c-26.391,0-26.391,27.025-52.784,27.025c-26.391,0-26.391-27.025-52.78-27.025c-26.396,0-26.396,27.025-52.79,27.025"/>
	
		<linearGradient id="SVGID_6_" gradientUnits="userSpaceOnUse" x1="-231.6255" y1="167.9141" x2="-20.4897" y2="167.9141" gradientTransform="matrix(1 0 0 -1 244 205.1426)">
		<stop  offset="0.3964" style="stop-color:#FF907E"/>
		<stop  offset="0.93" style="stop-color:#EF8ABB"/>
	</linearGradient>
	<path fill="none" stroke="url(#SVGID_6_)" stroke-miterlimit="10" d="M223.51,50.741c-26.392,0-26.392-27.025-52.781-27.025
		c-26.391,0-26.391,27.025-52.784,27.025c-26.391,0-26.391-27.025-52.78-27.025c-26.396,0-26.396,27.025-52.79,27.025"/>
	
		<linearGradient id="SVGID_7_" gradientUnits="userSpaceOnUse" x1="-231.6255" y1="131.3496" x2="-20.4897" y2="131.3496" gradientTransform="matrix(1 0 0 -1 244 205.1426)">
		<stop  offset="0.3964" style="stop-color:#FF907E"/>
		<stop  offset="0.93" style="stop-color:#EF8ABB"/>
	</linearGradient>
	<path fill="none" stroke="url(#SVGID_7_)" stroke-miterlimit="10" d="M223.51,87.306c-26.392,0-26.392-27.025-52.781-27.025
		c-26.391,0-26.391,27.025-52.784,27.025c-26.391,0-26.391-27.025-52.78-27.025c-26.396,0-26.396,27.025-52.79,27.025"/>
	
		<linearGradient id="SVGID_8_" gradientUnits="userSpaceOnUse" x1="-231.6255" y1="140.4902" x2="-20.4897" y2="140.4902" gradientTransform="matrix(1 0 0 -1 244 205.1426)">
		<stop  offset="0.3964" style="stop-color:#FF907E"/>
		<stop  offset="0.93" style="stop-color:#EF8ABB"/>
	</linearGradient>
	<path fill="none" stroke="url(#SVGID_8_)" stroke-miterlimit="10" d="M223.51,78.165c-26.392,0-26.392-27.025-52.781-27.025
		c-26.391,0-26.391,27.025-52.784,27.025c-26.391,0-26.391-27.025-52.78-27.025c-26.396,0-26.396,27.025-52.79,27.025"/>
	
		<linearGradient id="SVGID_9_" gradientUnits="userSpaceOnUse" x1="-231.6255" y1="149.6318" x2="-20.4897" y2="149.6318" gradientTransform="matrix(1 0 0 -1 244 205.1426)">
		<stop  offset="0.3964" style="stop-color:#FF907E"/>
		<stop  offset="0.93" style="stop-color:#EF8ABB"/>
	</linearGradient>
	<path fill="none" stroke="url(#SVGID_9_)" stroke-miterlimit="10" d="M223.51,69.024c-26.392,0-26.392-27.026-52.781-27.026
		c-26.391,0-26.391,27.026-52.784,27.026c-26.391,0-26.391-27.026-52.78-27.026c-26.396,0-26.396,27.026-52.79,27.026"/>
</g>
</svg>
